<svg xmlns="http://www.w3.org/2000/svg" width="920" height="520" viewBox="0 0 920 520">
<rect width="100%" height="100%" fill="white"/>
<text x="460.0" y="28" text-anchor="middle" font-family="sans-serif" font-size="20">ablation experiments</text>
<line x1="85" y1="415" x2="885" y2="415" stroke="black"/>
<line x1="85" y1="45" x2="85" y2="415" stroke="black"/>
<text x="460.0" y="502" text-anchor="middle" font-family="sans-serif" font-size="14">variant</text>
<text transform="translate(24,260.0) rotate(-90)" text-anchor="middle" font-family="sans-serif" font-size="14">median time (s)</text>
<rect x="115.0" y="78.6" width="73.3" height="336.4" fill="#1f77b4"/>
<text x="151.7" y="71.6" text-anchor="middle" font-family="sans-serif" font-size="11">44.1</text>
<text x="151.7" y="437" text-anchor="middle" font-family="sans-serif" font-size="11">Kernel</text>
<text x="151.7" y="453" text-anchor="middle" font-family="sans-serif" font-size="11">direct</text>
<rect x="248.3" y="150.4" width="73.3" height="264.6" fill="#d62728"/>
<text x="285.0" y="143.4" text-anchor="middle" font-family="sans-serif" font-size="11">34.7</text>
<text x="285.0" y="437" text-anchor="middle" font-family="sans-serif" font-size="11">Kernel</text>
<text x="285.0" y="453" text-anchor="middle" font-family="sans-serif" font-size="11">newton</text>
<rect x="381.7" y="407.8" width="73.3" height="7.2" fill="#2ca02c"/>
<text x="418.3" y="400.8" text-anchor="middle" font-family="sans-serif" font-size="11">0.944</text>
<text x="418.3" y="437" text-anchor="middle" font-family="sans-serif" font-size="11">Math</text>
<text x="418.3" y="453" text-anchor="middle" font-family="sans-serif" font-size="11">exact</text>
<rect x="515.0" y="406.1" width="73.3" height="8.9" fill="#9467bd"/>
<text x="551.7" y="399.1" text-anchor="middle" font-family="sans-serif" font-size="11">1.17</text>
<text x="551.7" y="437" text-anchor="middle" font-family="sans-serif" font-size="11">Math</text>
<text x="551.7" y="453" text-anchor="middle" font-family="sans-serif" font-size="11">approx</text>
<rect x="648.3" y="407.8" width="73.3" height="7.2" fill="#ff7f0e"/>
<text x="685.0" y="400.8" text-anchor="middle" font-family="sans-serif" font-size="11">0.939</text>
<text x="685.0" y="437" text-anchor="middle" font-family="sans-serif" font-size="11">Comm</text>
<text x="685.0" y="453" text-anchor="middle" font-family="sans-serif" font-size="11">sendrecv</text>
<rect x="781.7" y="407.9" width="73.3" height="7.1" fill="#17becf"/>
<text x="818.3" y="400.9" text-anchor="middle" font-family="sans-serif" font-size="11">0.937</text>
<text x="818.3" y="437" text-anchor="middle" font-family="sans-serif" font-size="11">Comm</text>
<text x="818.3" y="453" text-anchor="middle" font-family="sans-serif" font-size="11">overlap</text>
<line x1="80" y1="415.0" x2="85" y2="415.0" stroke="black"/>
<text x="75" y="419.0" text-anchor="end" font-family="sans-serif" font-size="12">0</text>
<line x1="80" y1="341.0" x2="85" y2="341.0" stroke="black"/>
<text x="75" y="345.0" text-anchor="end" font-family="sans-serif" font-size="12">9.7</text>
<line x1="80" y1="267.0" x2="85" y2="267.0" stroke="black"/>
<text x="75" y="271.0" text-anchor="end" font-family="sans-serif" font-size="12">19</text>
<line x1="80" y1="193.0" x2="85" y2="193.0" stroke="black"/>
<text x="75" y="197.0" text-anchor="end" font-family="sans-serif" font-size="12">29</text>
<line x1="80" y1="119.0" x2="85" y2="119.0" stroke="black"/>
<text x="75" y="123.0" text-anchor="end" font-family="sans-serif" font-size="12">39</text>
<line x1="80" y1="45.0" x2="85" y2="45.0" stroke="black"/>
<text x="75" y="49.0" text-anchor="end" font-family="sans-serif" font-size="12">49</text>
</svg>