<svg xmlns="http://www.w3.org/2000/svg" width="820" height="450" viewBox="0 0 820 450">
<rect width="100%" height="100%" fill="white"/>
<text x="410.0" y="28" text-anchor="middle" font-family="sans-serif" font-size="20">weak: native vs container median time</text>
<line x1="82" y1="375" x2="785" y2="375" stroke="black"/>
<line x1="82" y1="42" x2="82" y2="375" stroke="black"/>
<text x="410.0" y="432" text-anchor="middle" font-family="sans-serif" font-size="14">MPI ranks</text>
<text transform="translate(24,225.0) rotate(-90)" text-anchor="middle" font-family="sans-serif" font-size="14">seconds</text>
<polyline points="82.0,299.1 316.3,216.3 785.0,51.6" fill="none" stroke="#1f77b4" stroke-width="2"/>
<circle cx="82.0" cy="299.1" r="4" fill="#1f77b4"/>
<circle cx="316.3" cy="216.3" r="4" fill="#1f77b4"/>
<circle cx="785.0" cy="51.6" r="4" fill="#1f77b4"/>
<text x="92" y="60" fill="#1f77b4" font-family="sans-serif">native</text>
<polyline points="82.0,296.7 316.3,211.1 785.0,42.0" fill="none" stroke="#d62728" stroke-width="2"/>
<circle cx="82.0" cy="296.7" r="4" fill="#d62728"/>
<circle cx="316.3" cy="211.1" r="4" fill="#d62728"/>
<circle cx="785.0" cy="42.0" r="4" fill="#d62728"/>
<text x="92" y="80" fill="#d62728" font-family="sans-serif">container</text>
<text x="82.0" y="393" text-anchor="middle" font-family="sans-serif">1</text>
<text x="82.0" y="288.7" text-anchor="middle" font-family="sans-serif" font-size="11">+3.1%</text>
<text x="316.3" y="393" text-anchor="middle" font-family="sans-serif">2</text>
<text x="316.3" y="203.1" text-anchor="middle" font-family="sans-serif" font-size="11">+3.3%</text>
<text x="785.0" y="393" text-anchor="middle" font-family="sans-serif">4</text>
<text x="785.0" y="34.0" text-anchor="middle" font-family="sans-serif" font-size="11">+3.0%</text>
</svg>