<svg xmlns="http://www.w3.org/2000/svg" width="900" height="520" viewBox="0 0 900 520">
<rect width="100%" height="100%" fill="white"/>
<text x="450.0" y="28" text-anchor="middle" font-family="sans-serif" font-size="20">energy diagnostic overhead</text>
<line x1="82" y1="445" x2="865" y2="445" stroke="black"/>
<line x1="82" y1="42" x2="82" y2="445" stroke="black"/>
<text x="450.0" y="502" text-anchor="middle" font-family="sans-serif" font-size="14">energy_every</text>
<text transform="translate(24,260.0) rotate(-90)" text-anchor="middle" font-family="sans-serif" font-size="14">overhead vs sparse (%)</text>
<text x="82.0" y="473" text-anchor="middle" font-family="sans-serif" font-size="12">1</text>
<text x="246.8" y="473" text-anchor="middle" font-family="sans-serif" font-size="12">5</text>
<text x="452.9" y="473" text-anchor="middle" font-family="sans-serif" font-size="12">10</text>
<text x="865.0" y="473" text-anchor="middle" font-family="sans-serif" font-size="12">20</text>
<line x1="77" y1="445.0" x2="82" y2="445.0" stroke="black"/>
<text x="72" y="449.0" text-anchor="end" font-family="sans-serif" font-size="12">0</text>
<line x1="77" y1="364.4" x2="82" y2="364.4" stroke="black"/>
<text x="72" y="368.4" text-anchor="end" font-family="sans-serif" font-size="12">15</text>
<line x1="77" y1="283.8" x2="82" y2="283.8" stroke="black"/>
<text x="72" y="287.8" text-anchor="end" font-family="sans-serif" font-size="12">30</text>
<line x1="77" y1="203.2" x2="82" y2="203.2" stroke="black"/>
<text x="72" y="207.2" text-anchor="end" font-family="sans-serif" font-size="12">45</text>
<line x1="77" y1="122.6" x2="82" y2="122.6" stroke="black"/>
<text x="72" y="126.6" text-anchor="end" font-family="sans-serif" font-size="12">60</text>
<line x1="77" y1="42.0" x2="82" y2="42.0" stroke="black"/>
<text x="72" y="46.0" text-anchor="end" font-family="sans-serif" font-size="12">75</text>
<polyline points="82.0,42.0 246.8,381.3 452.9,424.2 865.0,445.0" fill="none" stroke="#1f77b4" stroke-width="2"/>
<circle cx="82.0" cy="42.0" r="4" fill="#1f77b4"/>
<circle cx="246.8" cy="381.3" r="4" fill="#1f77b4"/>
<circle cx="452.9" cy="424.2" r="4" fill="#1f77b4"/>
<circle cx="865.0" cy="445.0" r="4" fill="#1f77b4"/>
</svg>