<svg xmlns="http://www.w3.org/2000/svg" width="900" height="520" viewBox="0 0 900 520">
<rect width="100%" height="100%" fill="white"/>
<text x="450.0" y="28" text-anchor="middle" font-family="sans-serif" font-size="20">hybrid Gpairs/s</text>
<line x1="82" y1="445" x2="865" y2="445" stroke="black"/>
<line x1="82" y1="42" x2="82" y2="445" stroke="black"/>
<text x="450.0" y="502" text-anchor="middle" font-family="sans-serif" font-size="14">configuration</text>
<text transform="translate(24,260.0) rotate(-90)" text-anchor="middle" font-family="sans-serif" font-size="14">Gpairs/s</text>
<polyline points="82.0,56.1 212.5,42.0 343.0,58.6 473.5,55.0 604.0,48.3 734.5,48.6 865.0,53.9" fill="none" stroke="#1f77b4" stroke-width="2"/>
<circle cx="82.0" cy="56.1" r="4" fill="#1f77b4"/>
<text transform="translate(82.0,467) rotate(-35)" text-anchor="end" font-family="sans-serif" font-size="11">P64xT1</text>
<circle cx="212.5" cy="42.0" r="4" fill="#1f77b4"/>
<text transform="translate(212.5,467) rotate(-35)" text-anchor="end" font-family="sans-serif" font-size="11">P32xT2</text>
<circle cx="343.0" cy="58.6" r="4" fill="#1f77b4"/>
<text transform="translate(343.0,467) rotate(-35)" text-anchor="end" font-family="sans-serif" font-size="11">P16xT4</text>
<circle cx="473.5" cy="55.0" r="4" fill="#1f77b4"/>
<text transform="translate(473.5,467) rotate(-35)" text-anchor="end" font-family="sans-serif" font-size="11">P8xT8</text>
<circle cx="604.0" cy="48.3" r="4" fill="#1f77b4"/>
<text transform="translate(604.0,467) rotate(-35)" text-anchor="end" font-family="sans-serif" font-size="11">P4xT16</text>
<circle cx="734.5" cy="48.6" r="4" fill="#1f77b4"/>
<text transform="translate(734.5,467) rotate(-35)" text-anchor="end" font-family="sans-serif" font-size="11">P2xT32</text>
<circle cx="865.0" cy="53.9" r="4" fill="#1f77b4"/>
<text transform="translate(865.0,467) rotate(-35)" text-anchor="end" font-family="sans-serif" font-size="11">P1xT64</text>
</svg>