<svg xmlns="http://www.w3.org/2000/svg" width="900" height="520" viewBox="0 0 900 520">
<rect width="100%" height="100%" fill="white"/>
<text x="450.0" y="28" text-anchor="middle" font-family="sans-serif" font-size="20">AoS vs SoA force benchmark</text>
<line x1="82" y1="445" x2="865" y2="445" stroke="black"/>
<line x1="82" y1="42" x2="82" y2="445" stroke="black"/>
<text x="450.0" y="502" text-anchor="middle" font-family="sans-serif" font-size="14">OpenMP threads</text>
<text transform="translate(24,260.0) rotate(-90)" text-anchor="middle" font-family="sans-serif" font-size="14">median force time (s)</text>
<polyline points="82.0,101.8 343.0,272.1 604.0,358.6 865.0,400.8" fill="none" stroke="#1f77b4" stroke-width="2"/>
<circle cx="82.0" cy="101.8" r="4" fill="#1f77b4"/>
<circle cx="343.0" cy="272.1" r="4" fill="#1f77b4"/>
<circle cx="604.0" cy="358.6" r="4" fill="#1f77b4"/>
<circle cx="865.0" cy="400.8" r="4" fill="#1f77b4"/>
<text x="92" y="62" font-family="sans-serif" font-size="13" fill="#1f77b4">aos</text>
<polyline points="82.0,61.2 343.0,253.0 604.0,349.0 865.0,396.3" fill="none" stroke="#d62728" stroke-width="2"/>
<circle cx="82.0" cy="61.2" r="4" fill="#d62728"/>
<circle cx="343.0" cy="253.0" r="4" fill="#d62728"/>
<circle cx="604.0" cy="349.0" r="4" fill="#d62728"/>
<circle cx="865.0" cy="396.3" r="4" fill="#d62728"/>
<text x="92" y="82" font-family="sans-serif" font-size="13" fill="#d62728">soa</text>
<text x="82.0" y="467" text-anchor="middle" font-family="sans-serif" font-size="12">1</text>
<text x="343.0" y="467" text-anchor="middle" font-family="sans-serif" font-size="12">2</text>
<text x="604.0" y="467" text-anchor="middle" font-family="sans-serif" font-size="12">4</text>
<text x="865.0" y="467" text-anchor="middle" font-family="sans-serif" font-size="12">8</text>
</svg>