<svg xmlns="http://www.w3.org/2000/svg" width="900" height="520" viewBox="0 0 900 520">
<rect width="100%" height="100%" fill="white"/>
<text x="450.0" y="28" text-anchor="middle" font-family="sans-serif" font-size="20">OSU latency: native vs container</text>
<line x1="82" y1="445" x2="865" y2="445" stroke="black"/>
<line x1="82" y1="42" x2="82" y2="445" stroke="black"/>
<text x="450.0" y="502" text-anchor="middle" font-family="sans-serif" font-size="14">message size (bytes, log2 scale)</text>
<text transform="translate(24,260.0) rotate(-90)" text-anchor="middle" font-family="sans-serif" font-size="14">median latency (us)</text>
<polyline points="82.0,442.2 117.6,442.2 153.2,442.1 188.8,442.2 224.4,442.2 260.0,442.2 295.5,442.2 331.1,442.1 366.7,442.1 402.3,442.1 437.9,442.0 473.5,441.4 509.1,441.1 544.7,440.6 580.3,439.4 615.9,436.4 651.5,425.5 687.0,413.3 722.6,402.1 758.2,385.4 793.8,350.2 829.4,256.7 865.0,73.7" fill="none" stroke="#1f77b4" stroke-width="2"/>
<circle cx="82.0" cy="442.2" r="3" fill="#1f77b4"/>
<circle cx="117.6" cy="442.2" r="3" fill="#1f77b4"/>
<circle cx="153.2" cy="442.1" r="3" fill="#1f77b4"/>
<circle cx="188.8" cy="442.2" r="3" fill="#1f77b4"/>
<circle cx="224.4" cy="442.2" r="3" fill="#1f77b4"/>
<circle cx="260.0" cy="442.2" r="3" fill="#1f77b4"/>
<circle cx="295.5" cy="442.2" r="3" fill="#1f77b4"/>
<circle cx="331.1" cy="442.1" r="3" fill="#1f77b4"/>
<circle cx="366.7" cy="442.1" r="3" fill="#1f77b4"/>
<circle cx="402.3" cy="442.1" r="3" fill="#1f77b4"/>
<circle cx="437.9" cy="442.0" r="3" fill="#1f77b4"/>
<circle cx="473.5" cy="441.4" r="3" fill="#1f77b4"/>
<circle cx="509.1" cy="441.1" r="3" fill="#1f77b4"/>
<circle cx="544.7" cy="440.6" r="3" fill="#1f77b4"/>
<circle cx="580.3" cy="439.4" r="3" fill="#1f77b4"/>
<circle cx="615.9" cy="436.4" r="3" fill="#1f77b4"/>
<circle cx="651.5" cy="425.5" r="3" fill="#1f77b4"/>
<circle cx="687.0" cy="413.3" r="3" fill="#1f77b4"/>
<circle cx="722.6" cy="402.1" r="3" fill="#1f77b4"/>
<circle cx="758.2" cy="385.4" r="3" fill="#1f77b4"/>
<circle cx="793.8" cy="350.2" r="3" fill="#1f77b4"/>
<circle cx="829.4" cy="256.7" r="3" fill="#1f77b4"/>
<circle cx="865.0" cy="73.7" r="3" fill="#1f77b4"/>
<text x="92" y="62" font-family="sans-serif" font-size="13" fill="#1f77b4">native</text>
<polyline points="82.0,442.2 117.6,442.2 153.2,442.2 188.8,442.2 224.4,442.1 260.0,442.1 295.5,442.1 331.1,442.1 366.7,442.1 402.3,442.1 437.9,442.0 473.5,441.5 509.1,441.2 544.7,440.6 580.3,439.4 615.9,436.3 651.5,425.6 687.0,413.4 722.6,401.9 758.2,384.8 793.8,348.5 829.4,255.4 865.0,71.9" fill="none" stroke="#d62728" stroke-width="2"/>
<circle cx="82.0" cy="442.2" r="3" fill="#d62728"/>
<circle cx="117.6" cy="442.2" r="3" fill="#d62728"/>
<circle cx="153.2" cy="442.2" r="3" fill="#d62728"/>
<circle cx="188.8" cy="442.2" r="3" fill="#d62728"/>
<circle cx="224.4" cy="442.1" r="3" fill="#d62728"/>
<circle cx="260.0" cy="442.1" r="3" fill="#d62728"/>
<circle cx="295.5" cy="442.1" r="3" fill="#d62728"/>
<circle cx="331.1" cy="442.1" r="3" fill="#d62728"/>
<circle cx="366.7" cy="442.1" r="3" fill="#d62728"/>
<circle cx="402.3" cy="442.1" r="3" fill="#d62728"/>
<circle cx="437.9" cy="442.0" r="3" fill="#d62728"/>
<circle cx="473.5" cy="441.5" r="3" fill="#d62728"/>
<circle cx="509.1" cy="441.2" r="3" fill="#d62728"/>
<circle cx="544.7" cy="440.6" r="3" fill="#d62728"/>
<circle cx="580.3" cy="439.4" r="3" fill="#d62728"/>
<circle cx="615.9" cy="436.3" r="3" fill="#d62728"/>
<circle cx="651.5" cy="425.6" r="3" fill="#d62728"/>
<circle cx="687.0" cy="413.4" r="3" fill="#d62728"/>
<circle cx="722.6" cy="401.9" r="3" fill="#d62728"/>
<circle cx="758.2" cy="384.8" r="3" fill="#d62728"/>
<circle cx="793.8" cy="348.5" r="3" fill="#d62728"/>
<circle cx="829.4" cy="255.4" r="3" fill="#d62728"/>
<circle cx="865.0" cy="71.9" r="3" fill="#d62728"/>
<text x="92" y="82" font-family="sans-serif" font-size="13" fill="#d62728">container</text>
<text x="82.0" y="467" text-anchor="middle" font-family="sans-serif" font-size="11">1</text>
<text x="437.9" y="467" text-anchor="middle" font-family="sans-serif" font-size="11">1024</text>
<text x="793.8" y="467" text-anchor="middle" font-family="sans-serif" font-size="11">1048576</text>
<text x="865.0" y="467" text-anchor="middle" font-family="sans-serif" font-size="11">4194304</text>
</svg>