<svg xmlns="http://www.w3.org/2000/svg" width="900" height="520" viewBox="0 0 900 520">
<rect width="100%" height="100%" fill="white"/>
<text x="450.0" y="28" text-anchor="middle" font-family="sans-serif" font-size="20">OSU latency: native vs container</text>
<line x1="82" y1="445" x2="865" y2="445" stroke="black"/>
<line x1="82" y1="42" x2="82" y2="445" stroke="black"/>
<text x="450.0" y="502" text-anchor="middle" font-family="sans-serif" font-size="14">message size (bytes, log2 scale)</text>
<text transform="translate(24,260.0) rotate(-90)" text-anchor="middle" font-family="sans-serif" font-size="14">median latency (us)</text>
<polyline points="82.0,444.6 117.6,444.6 153.2,444.6 188.8,444.6 224.4,444.6 260.0,444.6 295.5,444.6 331.1,444.5 366.7,444.5 402.3,444.5 437.9,444.4 473.5,444.3 509.1,444.2 544.7,444.1 580.3,443.8 615.9,443.4 651.5,442.5 687.0,440.9 722.6,440.3 758.2,437.1 793.8,430.6 829.4,417.5 865.0,391.9" fill="none" stroke="#1f77b4" stroke-width="2"/>
<circle cx="82.0" cy="444.6" r="3" fill="#1f77b4"/>
<circle cx="117.6" cy="444.6" r="3" fill="#1f77b4"/>
<circle cx="153.2" cy="444.6" r="3" fill="#1f77b4"/>
<circle cx="188.8" cy="444.6" r="3" fill="#1f77b4"/>
<circle cx="224.4" cy="444.6" r="3" fill="#1f77b4"/>
<circle cx="260.0" cy="444.6" r="3" fill="#1f77b4"/>
<circle cx="295.5" cy="444.6" r="3" fill="#1f77b4"/>
<circle cx="331.1" cy="444.5" r="3" fill="#1f77b4"/>
<circle cx="366.7" cy="444.5" r="3" fill="#1f77b4"/>
<circle cx="402.3" cy="444.5" r="3" fill="#1f77b4"/>
<circle cx="437.9" cy="444.4" r="3" fill="#1f77b4"/>
<circle cx="473.5" cy="444.3" r="3" fill="#1f77b4"/>
<circle cx="509.1" cy="444.2" r="3" fill="#1f77b4"/>
<circle cx="544.7" cy="444.1" r="3" fill="#1f77b4"/>
<circle cx="580.3" cy="443.8" r="3" fill="#1f77b4"/>
<circle cx="615.9" cy="443.4" r="3" fill="#1f77b4"/>
<circle cx="651.5" cy="442.5" r="3" fill="#1f77b4"/>
<circle cx="687.0" cy="440.9" r="3" fill="#1f77b4"/>
<circle cx="722.6" cy="440.3" r="3" fill="#1f77b4"/>
<circle cx="758.2" cy="437.1" r="3" fill="#1f77b4"/>
<circle cx="793.8" cy="430.6" r="3" fill="#1f77b4"/>
<circle cx="829.4" cy="417.5" r="3" fill="#1f77b4"/>
<circle cx="865.0" cy="391.9" r="3" fill="#1f77b4"/>
<text x="92" y="62" font-family="sans-serif" font-size="13" fill="#1f77b4">native</text>
<polyline points="82.0,440.2 117.6,440.2 153.2,440.2 188.8,440.2 224.4,440.2 260.0,440.2 295.5,440.1 331.1,440.1 366.7,439.5 402.3,439.5 437.9,439.4 473.5,435.7 509.1,435.5 544.7,435.1 580.3,432.8 615.9,431.1 651.5,420.6 687.0,413.5 722.6,399.5 758.2,377.4 793.8,327.6 829.4,246.0 865.0,71.9" fill="none" stroke="#d62728" stroke-width="2"/>
<circle cx="82.0" cy="440.2" r="3" fill="#d62728"/>
<circle cx="117.6" cy="440.2" r="3" fill="#d62728"/>
<circle cx="153.2" cy="440.2" r="3" fill="#d62728"/>
<circle cx="188.8" cy="440.2" r="3" fill="#d62728"/>
<circle cx="224.4" cy="440.2" r="3" fill="#d62728"/>
<circle cx="260.0" cy="440.2" r="3" fill="#d62728"/>
<circle cx="295.5" cy="440.1" r="3" fill="#d62728"/>
<circle cx="331.1" cy="440.1" r="3" fill="#d62728"/>
<circle cx="366.7" cy="439.5" r="3" fill="#d62728"/>
<circle cx="402.3" cy="439.5" r="3" fill="#d62728"/>
<circle cx="437.9" cy="439.4" r="3" fill="#d62728"/>
<circle cx="473.5" cy="435.7" r="3" fill="#d62728"/>
<circle cx="509.1" cy="435.5" r="3" fill="#d62728"/>
<circle cx="544.7" cy="435.1" r="3" fill="#d62728"/>
<circle cx="580.3" cy="432.8" r="3" fill="#d62728"/>
<circle cx="615.9" cy="431.1" r="3" fill="#d62728"/>
<circle cx="651.5" cy="420.6" r="3" fill="#d62728"/>
<circle cx="687.0" cy="413.5" r="3" fill="#d62728"/>
<circle cx="722.6" cy="399.5" r="3" fill="#d62728"/>
<circle cx="758.2" cy="377.4" r="3" fill="#d62728"/>
<circle cx="793.8" cy="327.6" r="3" fill="#d62728"/>
<circle cx="829.4" cy="246.0" r="3" fill="#d62728"/>
<circle cx="865.0" cy="71.9" r="3" fill="#d62728"/>
<text x="92" y="82" font-family="sans-serif" font-size="13" fill="#d62728">container</text>
<text x="82.0" y="467" text-anchor="middle" font-family="sans-serif" font-size="11">1</text>
<text x="437.9" y="467" text-anchor="middle" font-family="sans-serif" font-size="11">1024</text>
<text x="793.8" y="467" text-anchor="middle" font-family="sans-serif" font-size="11">1048576</text>
<text x="865.0" y="467" text-anchor="middle" font-family="sans-serif" font-size="11">4194304</text>
</svg>