<svg xmlns="http://www.w3.org/2000/svg" width="900" height="520" viewBox="0 0 900 520">
<rect width="100%" height="100%" fill="white"/>
<text x="450.0" y="28" text-anchor="middle" font-family="sans-serif" font-size="20">strong scaling speedup</text>
<line x1="82" y1="445" x2="865" y2="445" stroke="black"/>
<line x1="82" y1="42" x2="82" y2="445" stroke="black"/>
<text x="450.0" y="502" text-anchor="middle" font-family="sans-serif" font-size="14">resources = ranks x threads</text>
<text transform="translate(24,260.0) rotate(-90)" text-anchor="middle" font-family="sans-serif" font-size="14">speedup</text>
<text x="82.0" y="473" text-anchor="middle" font-family="sans-serif" font-size="12">1</text>
<text x="94.4" y="473" text-anchor="middle" font-family="sans-serif" font-size="12">2</text>
<text x="119.3" y="473" text-anchor="middle" font-family="sans-serif" font-size="12">4</text>
<text x="169.0" y="473" text-anchor="middle" font-family="sans-serif" font-size="12">8</text>
<text x="268.4" y="473" text-anchor="middle" font-family="sans-serif" font-size="12">16</text>
<text x="467.3" y="473" text-anchor="middle" font-family="sans-serif" font-size="12">32</text>
<text x="865.0" y="473" text-anchor="middle" font-family="sans-serif" font-size="12">64</text>
<line x1="77" y1="445.0" x2="82" y2="445.0" stroke="black"/>
<text x="72" y="449.0" text-anchor="end" font-family="sans-serif" font-size="12">0</text>
<line x1="77" y1="364.4" x2="82" y2="364.4" stroke="black"/>
<text x="72" y="368.4" text-anchor="end" font-family="sans-serif" font-size="12">13</text>
<line x1="77" y1="283.8" x2="82" y2="283.8" stroke="black"/>
<text x="72" y="287.8" text-anchor="end" font-family="sans-serif" font-size="12">26</text>
<line x1="77" y1="203.2" x2="82" y2="203.2" stroke="black"/>
<text x="72" y="207.2" text-anchor="end" font-family="sans-serif" font-size="12">38</text>
<line x1="77" y1="122.6" x2="82" y2="122.6" stroke="black"/>
<text x="72" y="126.6" text-anchor="end" font-family="sans-serif" font-size="12">51</text>
<line x1="77" y1="42.0" x2="82" y2="42.0" stroke="black"/>
<text x="72" y="46.0" text-anchor="end" font-family="sans-serif" font-size="12">64</text>
<polyline points="82.0,438.7 94.4,432.4 119.3,419.8 169.0,394.6 268.4,344.2 467.3,243.5 865.0,42.0" fill="none" stroke="#555" stroke-width="2" stroke-dasharray="6,4"/>
<text x="92" y="62" font-family="sans-serif" font-size="13" fill="#555">ideal</text>
<polyline points="82.0,438.7 94.4,432.5 119.3,420.1 169.0,395.3 268.4,346.4 467.3,255.4 865.0,110.0" fill="none" stroke="#1f77b4" stroke-width="2"/>
<circle cx="82.0" cy="438.7" r="4" fill="#1f77b4"/>
<circle cx="94.4" cy="432.5" r="4" fill="#1f77b4"/>
<circle cx="119.3" cy="420.1" r="4" fill="#1f77b4"/>
<circle cx="169.0" cy="395.3" r="4" fill="#1f77b4"/>
<circle cx="268.4" cy="346.4" r="4" fill="#1f77b4"/>
<circle cx="467.3" cy="255.4" r="4" fill="#1f77b4"/>
<circle cx="865.0" cy="110.0" r="4" fill="#1f77b4"/>
</svg>