<svg xmlns="http://www.w3.org/2000/svg" width="920" height="520" viewBox="0 0 920 520">
<rect width="100%" height="100%" fill="white"/>
<text x="460.0" y="28" text-anchor="middle" font-family="sans-serif" font-size="20">median time (s) by P x T configuration</text>
<line x1="85" y1="430" x2="885" y2="430" stroke="black"/>
<line x1="85" y1="45" x2="85" y2="430" stroke="black"/>
<text x="460.0" y="500" text-anchor="middle" font-family="sans-serif" font-size="14">MPI ranks x OpenMP threads</text>
<text transform="translate(24,260.0) rotate(-90)" text-anchor="middle" font-family="sans-serif" font-size="14">median time (s)</text>
<line x1="85.0" y1="430" x2="85.0" y2="435" stroke="black"/>
<text x="85.0" y="454" text-anchor="middle" font-family="sans-serif" font-size="12">32x1</text>
<line x1="245.0" y1="430" x2="245.0" y2="435" stroke="black"/>
<text x="245.0" y="454" text-anchor="middle" font-family="sans-serif" font-size="12">16x2</text>
<line x1="405.0" y1="430" x2="405.0" y2="435" stroke="black"/>
<text x="405.0" y="454" text-anchor="middle" font-family="sans-serif" font-size="12">8x4</text>
<line x1="565.0" y1="430" x2="565.0" y2="435" stroke="black"/>
<text x="565.0" y="454" text-anchor="middle" font-family="sans-serif" font-size="12">4x8</text>
<line x1="725.0" y1="430" x2="725.0" y2="435" stroke="black"/>
<text x="725.0" y="454" text-anchor="middle" font-family="sans-serif" font-size="12">2x16</text>
<line x1="885.0" y1="430" x2="885.0" y2="435" stroke="black"/>
<text x="885.0" y="454" text-anchor="middle" font-family="sans-serif" font-size="12">1x32</text>
<line x1="80" y1="430.0" x2="85" y2="430.0" stroke="black"/>
<text x="75" y="434.0" text-anchor="end" font-family="sans-serif" font-size="12">1.03</text>
<line x1="80" y1="353.0" x2="85" y2="353.0" stroke="black"/>
<text x="75" y="357.0" text-anchor="end" font-family="sans-serif" font-size="12">1.05</text>
<line x1="80" y1="276.0" x2="85" y2="276.0" stroke="black"/>
<text x="75" y="280.0" text-anchor="end" font-family="sans-serif" font-size="12">1.07</text>
<line x1="80" y1="199.0" x2="85" y2="199.0" stroke="black"/>
<text x="75" y="203.0" text-anchor="end" font-family="sans-serif" font-size="12">1.1</text>
<line x1="80" y1="122.0" x2="85" y2="122.0" stroke="black"/>
<text x="75" y="126.0" text-anchor="end" font-family="sans-serif" font-size="12">1.12</text>
<line x1="80" y1="45.0" x2="85" y2="45.0" stroke="black"/>
<text x="75" y="49.0" text-anchor="end" font-family="sans-serif" font-size="12">1.14</text>
<polyline points="85.0,359.5 245.0,329.5 405.0,337.6 565.0,351.9 725.0,358.8 885.0,346.8" fill="none" stroke="#1f77b4" stroke-width="2"/>
<circle cx="85.0" cy="359.5" r="4" fill="#1f77b4"/>
<text x="85.0" y="351.5" text-anchor="middle" font-family="sans-serif" font-size="11">1.048</text>
<circle cx="245.0" cy="329.5" r="4" fill="#1f77b4"/>
<text x="245.0" y="321.5" text-anchor="middle" font-family="sans-serif" font-size="11">1.057</text>
<circle cx="405.0" cy="337.6" r="4" fill="#1f77b4"/>
<text x="405.0" y="329.6" text-anchor="middle" font-family="sans-serif" font-size="11">1.054</text>
<circle cx="565.0" cy="351.9" r="4" fill="#1f77b4"/>
<text x="565.0" y="343.9" text-anchor="middle" font-family="sans-serif" font-size="11">1.050</text>
<circle cx="725.0" cy="358.8" r="4" fill="#1f77b4"/>
<text x="725.0" y="350.8" text-anchor="middle" font-family="sans-serif" font-size="11">1.048</text>
<circle cx="885.0" cy="346.8" r="4" fill="#1f77b4"/>
<text x="885.0" y="338.8" text-anchor="middle" font-family="sans-serif" font-size="11">1.051</text>
</svg>