<svg xmlns="http://www.w3.org/2000/svg" width="900" height="520" viewBox="0 0 900 520">
<rect width="100%" height="100%" fill="white"/>
<line x1="80" y1="450" x2="870" y2="450" stroke="black"/>
<line x1="80" y1="40" x2="80" y2="450" stroke="black"/>
<text x="450.0" y="28" text-anchor="middle" font-family="sans-serif" font-size="20">strong speedup</text>
<text x="450.0" y="500" text-anchor="middle" font-family="sans-serif" font-size="14">resources = ranks x threads</text>
<text transform="translate(22,260.0) rotate(-90)" text-anchor="middle" font-family="sans-serif" font-size="14">speedup</text>
<line x1="80.0" y1="40" x2="80.0" y2="450" stroke="#eeeeee"/>
<line x1="80.0" y1="450" x2="80.0" y2="455" stroke="black"/>
<text transform="translate(80.0,478) rotate(-45)" text-anchor="end" font-family="sans-serif" font-size="12">1</text>
<line x1="92.5" y1="40" x2="92.5" y2="450" stroke="#eeeeee"/>
<line x1="92.5" y1="450" x2="92.5" y2="455" stroke="black"/>
<text transform="translate(92.5,478) rotate(-45)" text-anchor="end" font-family="sans-serif" font-size="12">2</text>
<line x1="117.6" y1="40" x2="117.6" y2="450" stroke="#eeeeee"/>
<line x1="117.6" y1="450" x2="117.6" y2="455" stroke="black"/>
<text transform="translate(117.6,478) rotate(-45)" text-anchor="end" font-family="sans-serif" font-size="12">4</text>
<line x1="167.8" y1="40" x2="167.8" y2="450" stroke="#eeeeee"/>
<line x1="167.8" y1="450" x2="167.8" y2="455" stroke="black"/>
<text transform="translate(167.8,478) rotate(-45)" text-anchor="end" font-family="sans-serif" font-size="12">8</text>
<line x1="268.1" y1="40" x2="268.1" y2="450" stroke="#eeeeee"/>
<line x1="268.1" y1="450" x2="268.1" y2="455" stroke="black"/>
<text transform="translate(268.1,478) rotate(-45)" text-anchor="end" font-family="sans-serif" font-size="12">16</text>
<line x1="468.7" y1="40" x2="468.7" y2="450" stroke="#eeeeee"/>
<line x1="468.7" y1="450" x2="468.7" y2="455" stroke="black"/>
<text transform="translate(468.7,478) rotate(-45)" text-anchor="end" font-family="sans-serif" font-size="12">32</text>
<line x1="870.0" y1="40" x2="870.0" y2="450" stroke="#eeeeee"/>
<line x1="870.0" y1="450" x2="870.0" y2="455" stroke="black"/>
<text transform="translate(870.0,478) rotate(-45)" text-anchor="end" font-family="sans-serif" font-size="12">64</text>
<line x1="80" y1="450.0" x2="870" y2="450.0" stroke="#eeeeee"/>
<line x1="75" y1="450.0" x2="80" y2="450.0" stroke="black"/>
<text x="70" y="454.0" text-anchor="end" font-family="sans-serif" font-size="12">0</text>
<line x1="80" y1="368.0" x2="870" y2="368.0" stroke="#eeeeee"/>
<line x1="75" y1="368.0" x2="80" y2="368.0" stroke="black"/>
<text x="70" y="372.0" text-anchor="end" font-family="sans-serif" font-size="12">13</text>
<line x1="80" y1="286.0" x2="870" y2="286.0" stroke="#eeeeee"/>
<line x1="75" y1="286.0" x2="80" y2="286.0" stroke="black"/>
<text x="70" y="290.0" text-anchor="end" font-family="sans-serif" font-size="12">26</text>
<line x1="80" y1="204.0" x2="870" y2="204.0" stroke="#eeeeee"/>
<line x1="75" y1="204.0" x2="80" y2="204.0" stroke="black"/>
<text x="70" y="208.0" text-anchor="end" font-family="sans-serif" font-size="12">38</text>
<line x1="80" y1="122.0" x2="870" y2="122.0" stroke="#eeeeee"/>
<line x1="75" y1="122.0" x2="80" y2="122.0" stroke="black"/>
<text x="70" y="126.0" text-anchor="end" font-family="sans-serif" font-size="12">51</text>
<line x1="80" y1="40.0" x2="870" y2="40.0" stroke="#eeeeee"/>
<line x1="75" y1="40.0" x2="80" y2="40.0" stroke="black"/>
<text x="70" y="44.0" text-anchor="end" font-family="sans-serif" font-size="12">64</text>
<polyline points="80.0,443.6 92.5,437.2 117.6,424.4 167.8,398.8 268.1,347.5 468.7,245.0 870.0,40.0" fill="none" stroke="#555" stroke-width="2" stroke-dasharray="6,4"/>
<text x="90" y="60" font-family="sans-serif" font-size="13" fill="#555">ideal</text>
<polyline points="80.0,443.6 92.5,437.6 117.6,425.5 167.8,401.5 268.1,354.4 468.7,259.3 870.0,78.8" fill="none" stroke="#1f77b4" stroke-width="2"/>
<circle cx="80.0" cy="443.6" r="4" fill="#1f77b4"/>
<circle cx="92.5" cy="437.6" r="4" fill="#1f77b4"/>
<circle cx="117.6" cy="425.5" r="4" fill="#1f77b4"/>
<circle cx="167.8" cy="401.5" r="4" fill="#1f77b4"/>
<circle cx="268.1" cy="354.4" r="4" fill="#1f77b4"/>
<circle cx="468.7" cy="259.3" r="4" fill="#1f77b4"/>
<circle cx="870.0" cy="78.8" r="4" fill="#1f77b4"/>
<text x="90" y="80" font-family="sans-serif" font-size="13" fill="#1f77b4">kdk/overlap/direct/exact</text>
</svg>